<?xml version="1.0" encoding="UTF-8"?>
<svg id="a" data-name="Layer 1" xmlns="http://www.w3.org/2000/svg" width="220" height="214.25038497" viewBox="0 0 220 214.25038497">
  <path d="m212.6653363,109.93442221c-5.03136258-17.69361453,13.86171714-35.54352972,2.19153144-52.34237042l-.00205659-.00189839c-5.74025252-11.20602969-16.84250364-15.48990176-27.76551523-19.07643242-16.09627872-4.761475-21.79207731-25.61511555-33.96707619-34.74842129-16.57293246-10.37991426-31.92630844,3.71071691-47.72343276,6.35643782-15.517112,3.93172099-31.63870257-8.77023892-46.40832406-2.23693456-12.45501119,5.16440798-15.62516195,17.10811984-20.4614651,27.45813448-5.79894437,12.87756085-21.74556679,19.61146161-32.17373176,27.76535704-11.46025557,12.39283897-5.09163642,30.09926762.97861932,42.88570582,3.42690782,12.57192029-5.06600817,24.9408712-5.43872513,37.98248447.76014643,9.3900628,6.44866787,20.30057667,15.14455324,24.69360608,20.53581866,4.48589226,34.80078518,21.20420964,45.68155763,39.41197108,10.88346183,10.08139265,26.88308093,6.12831479,38.81287128.02119867,15.12019058-6.95601222,31.51151053-2.24531911,47.24108386,1.79128784,20.48456217,1.70554396,27.76345865-20.21862956,35.15072148-34.09616661,7.68815742-12.11092826,25.42622588-16.17964962,32.40296218-26.77408179,7.93320775-12.45596039,1.26401041-26.95933288-3.6635736-39.08987782Z" style="stroke-width: 0px;"/>
  <g>
    <path d="m155.15806283,167.65048138c-34.07410565,25.01668994-81.97848108,17.67393252-106.99532539-16.40032751-25.01653556-34.07410565-17.67377814-81.97848108,16.40048188-106.99532539,34.07410565-25.01653556,81.97848108-17.67377814,106.99517102,16.40048188,25.01715307,34.07611254,17.67393252,81.97848108-16.40032751,106.99517102Z" style="fill: #fff; stroke-width: 0px;"/>
    <path d="m110.68975362,43.38946511c-34.59726929,0-62.64265303,28.04739718-62.64265303,62.64279684,0,34.59726929,28.04739718,62.64279684,62.64265303,62.64279684,34.59726929,0,62.64279684-28.04739718,62.64279684-62.64279684,0-34.59726929-28.04739718-62.64279684-62.64279684-62.64279684Zm-4.68499295,110.12020132h-10.14544888v-29.84540129h7.33525849c.9491943,0,1.88602031-.05263714,2.81019039-.14899474v29.99439603Zm-2.81019039-32.61230267h-17.28784835c-13.30684117,0-24.13139543-10.82455426-24.13139543-24.12966962,0-13.30684117,10.82455426-24.13139543,24.13139543-24.13139543h17.28784835c1.43472156,0,2.83665278.13763317,4.20320494.37881482-4.26303294,2.26929346-7.82625081,5.66064964-10.3398899,9.76663407h-11.15116339c-7.71177223,0-13.98609036,6.27417432-13.98609036,13.98594654s6.27431813,13.98422073,13.98609036,13.98422073h17.28784835c7.71177223,0,13.98422073-6.27244851,13.98422073-13.98422073,0-3.54754178-1.32772148-6.79047849-3.51187509-9.25881512,1.80203099-1.23467168,3.97913755-1.96023004,6.32379129-1.96023004h4.56289205c1.76837774,3.35367604,2.77049681,7.17116293,2.77049681,11.21904516,0,13.30511536-10.82441044,24.12966962-24.1295258,24.12966962Zm32.23938436,0h-20.43284546c4.60387998-2.26224641,8.46034137-5.79281775,11.12484482-10.14544888h9.30800064c7.71177223,0,13.98609036-6.27244851,13.98609036-13.98422073s-6.27431813-13.98594654-13.98609036-13.98594654h-15.44324743c-7.71177223,0-13.98594654,6.27417432-13.98594654,13.98594654v10.84670213c-.89986496.23341551-1.83827296.37061723-2.81019039.37061723h-7.33525849v-11.21731935c0-13.30684117,10.82455426-24.13139543,24.13139543-24.13139543h15.44324743c13.30684117,0,24.13139543,10.82455426,24.13139543,24.13139543,0,13.30511536-10.82455426,24.12966962-24.13139543,24.12966962Zm67.89816928-11.21832607c-4.57396598-16.08510412,12.60156104-32.31229974,1.99230131-47.58397311l-.00186963-.00172581c-5.21841138-10.18729972-15.31136695-14.08172888-25.24137749-17.34221129-14.63298066-4.32861364-19.81097937-23.28646868-30.87916017-31.5894739-15.06630224-9.43628569-29.02391677,3.37337901-43.38493888,5.77857984-14.10646546,3.5742918-28.76245688-7.97294448-42.18938551-2.03357688-11.32273745,4.69491635-14.20469268,15.55283622-18.60133191,24.96194044-5.27176761,11.7068735-19.76869708,17.82860146-29.24884705,25.24123367-10.41841415,11.26621724-4.62876038,27.36297056.88965393,38.98700529,3.11537074,11.42901845-4.60546197,22.67351927-4.94429558,34.52953134.69104221,8.53642073,5.86242533,18.4550697,13.76777567,22.4487328,18.66892605,4.07808387,31.63707744,19.27655422,41.52868875,35.82906462,9.89405621,9.16490241,24.43916449,5.57119527,35.28442844.01927152,13.7456278-6.32364747,28.64682776-2.04119919,42.94643987,1.62844349,18.62232924,1.55049451,25.23950786-18.38057233,31.95520134-30.9965151,6.98923402-11.00993478,23.1147508-14.70877238,29.45723835-24.34007435,7.21200705-11.32360035,1.14910037-24.50848443-3.33052145-35.53625256Zm-51.27231205,53.75143498c-31.74350225,23.30559639-76.37131039,16.46506947-99.67705059-15.2785766-23.30545257-31.74350225-16.46492565-76.37131039,15.27872041-99.67705059,31.74350225-23.30545257,76.37131039-16.46492565,99.67690677,15.27872041,23.30602784,31.74537188,16.46506947,76.37131039-15.2785766,99.67690677Z" style="fill: #d62435; stroke-width: 0px;"/>
  </g>
</svg>